<svg xmlns="http://www.w3.org/2000/svg" xmlns:xlink="http://www.w3.org/1999/xlink" width="400" zoomAndPan="magnify" viewBox="0 0 300 299.999988" height="400" preserveAspectRatio="xMidYMid meet" version="1.0"><path fill="#ffde59" d="M 145.847656 21.03125 C 124.121094 25.113281 116.164062 27.535156 102.257812 34.179688 C 78.320312 45.734375 58.601562 63.582031 43.585938 87.382812 C 35.214844 100.804688 28.367188 121.148438 26.082031 139.898438 C 24.976562 149.304688 25.667969 169.714844 27.46875 178.503906 C 31.273438 197.183594 39.921875 215.65625 52.375 231.640625 C 69.808594 254.054688 90.910156 268.378906 119.003906 276.886719 C 138.859375 282.90625 161.761719 283.738281 182.445312 279.308594 C 207.355469 273.914062 232.675781 258.898438 250.390625 239.113281 C 266.234375 221.332031 276.957031 200.019531 281.9375 176.429688 C 283.53125 168.816406 283.808594 165.980469 283.808594 155.53125 C 283.808594 147.023438 283.460938 141.488281 282.628906 136.851562 C 281.59375 131.179688 278.894531 120.9375 278.480469 120.9375 C 278.410156 120.9375 278.339844 126.472656 278.339844 133.1875 C 278.339844 146.746094 277.511719 152.28125 273.773438 163.699219 C 269.070312 177.949219 261.25 190.265625 249.972656 201.128906 C 232.746094 217.664062 212.75 226.242188 188.742188 227.28125 C 171.101562 228.042969 155.394531 224.722656 139.480469 216.695312 C 129.519531 211.714844 123.359375 207.148438 114.644531 198.5 C 94.027344 177.878906 83.785156 151.660156 85.378906 123.5 C 86.828125 97.484375 96.792969 75.484375 115.335938 57.285156 C 130.902344 42.066406 148.0625 33.417969 169.09375 30.027344 C 181.824219 28.019531 199.535156 28.988281 210.398438 32.378906 C 212.75 33.140625 214.757812 33.554688 214.964844 33.417969 C 215.378906 33.003906 204.726562 28.089844 199.121094 26.152344 C 188.050781 22.347656 180.441406 21.238281 163.488281 20.964844 C 154.773438 20.824219 146.816406 20.894531 145.847656 21.03125 Z M 53.757812 102.949219 C 50.507812 113.46875 48.707031 138.097656 50.300781 150.34375 C 53.898438 177.671875 64.621094 200.503906 83.09375 220.363281 C 98.523438 236.828125 121.769531 249.144531 144.394531 252.8125 C 152.074219 254.054688 170.683594 254.195312 179.195312 253.085938 C 199.535156 250.457031 223.542969 240.980469 239.941406 229.078125 L 244.4375 225.757812 L 242.15625 228.734375 C 238.144531 233.785156 228.042969 242.640625 220.636719 247.621094 C 211.296875 253.917969 202.925781 258.070312 192.964844 261.390625 C 182.445312 264.917969 176.980469 266.027344 165.21875 266.996094 C 135.261719 269.554688 105.996094 260.074219 81.15625 239.941406 C 58.53125 221.539062 43.585938 193.449219 40.613281 163.835938 C 39.089844 148.683594 41.925781 128.203125 47.324219 114.644531 C 49.539062 109.039062 54.65625 98.039062 54.933594 98.316406 C 55.074219 98.453125 54.519531 100.527344 53.757812 102.949219 Z M 53.757812 102.949219 " fill-opacity="1" fill-rule="nonzero"/></svg>